<svg preserveAspectRatio="none" width="100%" height="100%" overflow="visible" style="display: block;" viewBox="0 0 24 24" fill="none" xmlns="http://www.w3.org/2000/svg">
<g id="Group">
<path id="Vector" d="M18.285 14.8575H17.1375V17.145H14.8575V18.285H12.57V19.425H15.9975V20.5725H17.1375V21.7125H18.285V22.86H19.425V24H20.5725V22.86H21.7125V21.7125H22.8525V20.5725H24V19.425H22.8525V18.285H21.7125V17.145H20.5725V15.9975H19.425V12.57H18.285V14.8575Z" fill="var(--fill-0, #010101)"/>
<path id="Vector_2" d="M20.5725 8.0025H19.425V12.57H20.5725V8.0025Z" fill="var(--fill-0, #010101)"/>
<path id="Vector_3" d="M19.425 5.715H18.285V8.0025H19.425V5.715Z" fill="var(--fill-0, #010101)"/>
<path id="Vector_4" d="M18.285 3.4275H17.1375V5.715H18.285V3.4275Z" fill="var(--fill-0, #010101)"/>
<path id="Vector_5" d="M17.1375 9.1425H15.9975V11.43H17.1375V9.1425Z" fill="var(--fill-0, #010101)"/>
<path id="Vector_6" d="M15.9975 6.855H14.8575V9.1425H15.9975V6.855Z" fill="var(--fill-0, #010101)"/>
<path id="Vector_7" d="M17.1375 2.2875H14.8575V3.4275H17.1375V2.2875Z" fill="var(--fill-0, #010101)"/>
<path id="Vector_8" d="M14.8575 5.715H12.57V6.855H14.8575V5.715Z" fill="var(--fill-0, #010101)"/>
<path id="Vector_9" d="M14.8575 1.14H12.57V2.2875H14.8575V1.14Z" fill="var(--fill-0, #010101)"/>
<path id="Vector_10" d="M12.57 4.575H10.2825V5.715H12.57V4.575Z" fill="var(--fill-0, #010101)"/>
<path id="Vector_11" d="M12.57 19.425H7.995V20.5725H12.57V19.425Z" fill="var(--fill-0, #010101)"/>
<path id="Vector_12" d="M12.57 0H7.995V1.14H12.57V0Z" fill="var(--fill-0, #010101)"/>
<path id="Vector_13" d="M7.995 18.285H5.715V19.425H7.995V18.285Z" fill="var(--fill-0, #010101)"/>
<path id="Vector_14" d="M7.995 1.14H5.715V2.2875H7.995V1.14Z" fill="var(--fill-0, #010101)"/>
<path id="Vector_15" d="M5.715 17.145H3.4275V18.285H5.715V17.145Z" fill="var(--fill-0, #010101)"/>
<path id="Vector_16" d="M5.715 2.2875H3.4275V3.4275H5.715V2.2875Z" fill="var(--fill-0, #010101)"/>
<path id="Vector_17" d="M3.4275 14.8575H2.2875V17.145H3.4275V14.8575Z" fill="var(--fill-0, #010101)"/>
<path id="Vector_18" d="M3.4275 3.4275H2.2875V5.715H3.4275V3.4275Z" fill="var(--fill-0, #010101)"/>
<path id="Vector_19" d="M2.2875 12.57H1.14V14.8575H2.2875V12.57Z" fill="var(--fill-0, #010101)"/>
<path id="Vector_20" d="M2.2875 5.715H1.14V8.0025H2.2875V5.715Z" fill="var(--fill-0, #010101)"/>
<path id="Vector_21" d="M1.14 8.0025H0V12.57H1.14V8.0025Z" fill="var(--fill-0, #010101)"/>
</g>
</svg>
