<svg width="378" height="272" viewBox="0 0 378 272" fill="none" xmlns="http://www.w3.org/2000/svg">
<path fill-rule="evenodd" clip-rule="evenodd" d="M16.9551 46.1134C39.9552 6.11332 102.5 -16.9345 151.5 15.0655C190.143 40.3015 201.463 79.0572 190.755 115.085C181.714 95.5513 161.94 82.0001 139 82.0001C107.52 82.0001 82 107.52 82 139C82 170.48 107.52 196 139 196C151.308 196 162.704 192.098 172.02 185.465C172.007 185.975 172 186.487 172 187C172 218.48 197.52 244 229 244C260.48 244 286 218.48 286 187C286 155.52 260.48 130 229 130C224.761 130 220.631 130.463 216.656 131.341C218.746 118.024 224.632 104.827 234.854 94.3399C257.817 70.7831 313.28 61.8386 354.844 110.475C398.829 161.945 376.675 241.973 299.862 235.035C304.552 249.072 306.636 257.958 307.301 271.962H20.7246C20.7246 271.962 15.2243 216.962 43.2246 189.962C-12.7757 149.198 -6.04503 86.1134 16.9551 46.1134Z" fill="#3467F2"/>
<circle cx="150" cy="140.5" r="20.5" fill="#010101"/>
<circle cx="223" cy="167.5" r="20.5" fill="#010101"/>
</svg>
