<svg width="378" height="272" viewBox="0 0 378 272" fill="none" xmlns="http://www.w3.org/2000/svg">
<path d="M16.9551 46.1133C39.9552 6.11334 102.5 -16.9345 151.5 15.0655C198.557 45.7966 205.1 96.5765 180.682 138.065C195.507 140.879 205.262 143.39 216.097 149.198C214.318 130.482 220.02 109.558 234.854 94.3399C257.817 70.7832 313.28 61.8387 354.844 110.475C398.829 161.945 376.675 241.973 299.862 235.035C304.552 249.072 306.636 257.958 307.301 271.962H20.7246C20.7166 271.882 15.2446 216.942 43.2246 189.962C-12.7757 149.198 -6.04504 86.1134 16.9551 46.1133Z" fill="#3467F2"/>
<circle cx="139" cy="139" r="57" fill="#F3F3F3"/>
<circle cx="229" cy="187" r="57" fill="#F3F3F3"/>
<circle cx="150" cy="140.5" r="20.5" fill="#010101"/>
<circle cx="223" cy="167.5" r="20.5" fill="#010101"/>
</svg>
