<svg width="265" height="16" viewBox="0 0 242 16" fill="none" xmlns="http://www.w3.org/2000/svg">
<path d="M7.34785 15.84C6.27718 15.84 5.29451 15.6493 4.39985 15.268C3.50518 14.8867 2.72785 14.344 2.06785 13.64C1.40785 12.9213 0.894514 12.078 0.527848 11.11C0.175848 10.142 -0.000152335 9.07866 -0.000152335 7.91999C-0.000152335 6.81999 0.190514 5.80066 0.571848 4.86199C0.967848 3.90866 1.51051 3.07266 2.19985 2.35399C2.88918 1.63533 3.68851 1.07799 4.59785 0.681995C5.50718 0.285995 6.48985 0.0879945 7.54585 0.0879945C8.29385 0.0879945 9.01985 0.205328 9.72385 0.439994C10.4425 0.659995 11.0878 0.975328 11.6598 1.38599C12.2465 1.78199 12.7232 2.23666 13.0898 2.74999L11.5058 4.39999C11.0805 3.97466 10.6478 3.62266 10.2078 3.34399C9.78251 3.05066 9.34251 2.83066 8.88785 2.684C8.44785 2.53733 8.00051 2.46399 7.54585 2.46399C6.82718 2.46399 6.15251 2.60333 5.52185 2.88199C4.90585 3.14599 4.36318 3.51999 3.89385 4.004C3.43918 4.48799 3.07985 5.06733 2.81585 5.74199C2.55185 6.40199 2.41985 7.12799 2.41985 7.91999C2.41985 8.75599 2.54451 9.51866 2.79385 10.208C3.05785 10.8827 3.42451 11.462 3.89385 11.946C4.36318 12.43 4.92051 12.804 5.56585 13.068C6.22585 13.3173 6.95185 13.442 7.74385 13.442C8.22785 13.442 8.70451 13.376 9.17385 13.244C9.64318 13.112 10.0832 12.9213 10.4938 12.672C10.9045 12.4227 11.2785 12.1293 11.6158 11.792L12.8038 13.728C12.4665 14.124 12.0045 14.4833 11.4178 14.806C10.8458 15.1287 10.2005 15.3853 9.48185 15.576C8.77785 15.752 8.06651 15.84 7.34785 15.84ZM22.4775 15.84C21.3922 15.84 20.3875 15.642 19.4635 15.246C18.5542 14.85 17.7548 14.3 17.0655 13.596C16.3908 12.8773 15.8628 12.0413 15.4815 11.088C15.1148 10.12 14.9315 9.06399 14.9315 7.91999C14.9315 6.77599 15.1148 5.72733 15.4815 4.77399C15.8628 3.80599 16.3908 2.96999 17.0655 2.26599C17.7548 1.54733 18.5542 0.989995 19.4635 0.593994C20.3875 0.197994 21.3922 -5.72205e-06 22.4775 -5.72205e-06C23.5628 -5.72205e-06 24.5602 0.197994 25.4695 0.593994C26.3935 0.989995 27.1928 1.54733 27.8675 2.26599C28.5568 2.98466 29.0848 3.82799 29.4515 4.79599C29.8328 5.74933 30.0235 6.79066 30.0235 7.91999C30.0235 9.04933 29.8328 10.098 29.4515 11.066C29.0848 12.0193 28.5568 12.8553 27.8675 13.574C27.1928 14.2927 26.3935 14.85 25.4695 15.246C24.5602 15.642 23.5628 15.84 22.4775 15.84ZM22.4775 13.53C23.2255 13.53 23.9075 13.3907 24.5235 13.112C25.1542 12.8333 25.6968 12.4447 26.1515 11.946C26.6062 11.4327 26.9582 10.8387 27.2075 10.164C27.4715 9.47466 27.6035 8.72666 27.6035 7.91999C27.6035 7.11333 27.4715 6.37266 27.2075 5.69799C26.9582 5.00866 26.6062 4.41466 26.1515 3.916C25.6968 3.40266 25.1542 3.00666 24.5235 2.72799C23.9075 2.44933 23.2255 2.30999 22.4775 2.30999C21.7295 2.30999 21.0402 2.44933 20.4095 2.72799C19.7935 3.00666 19.2508 3.39533 18.7815 3.89399C18.3268 4.39266 17.9748 4.98666 17.7255 5.67599C17.4762 6.35066 17.3515 7.09866 17.3515 7.91999C17.3515 8.72666 17.4762 9.47466 17.7255 10.164C17.9748 10.8533 18.3268 11.4473 18.7815 11.946C19.2508 12.4447 19.7935 12.8333 20.4095 13.112C21.0402 13.3907 21.7295 13.53 22.4775 13.53ZM33.2405 15.62V0.219994H35.5725L41.1825 9.34999L40.0605 9.32799L45.7365 0.219994H47.9365V15.62H45.5605V9.306C45.5605 7.986 45.5898 6.79799 45.6485 5.74199C45.7218 4.68599 45.8391 3.63733 46.0005 2.59599L46.3085 3.40999L41.2705 11.198H39.8185L34.9345 3.498L35.1765 2.59599C35.3378 3.57866 35.4478 4.59066 35.5065 5.63199C35.5798 6.65866 35.6165 7.88333 35.6165 9.306V15.62H33.2405ZM52.2541 15.62V0.219994H58.5241C59.3601 0.219994 60.1155 0.432661 60.7901 0.857995C61.4795 1.26866 62.0295 1.83333 62.4401 2.55199C62.8508 3.27066 63.0561 4.06999 63.0561 4.94999C63.0561 5.82999 62.8508 6.62933 62.4401 7.34799C62.0295 8.06666 61.4795 8.64599 60.7901 9.08599C60.1155 9.51133 59.3601 9.72399 58.5241 9.72399H54.6301V15.62H52.2541ZM54.6301 7.43599H58.4801C58.8761 7.43599 59.2355 7.32599 59.5581 7.10599C59.8808 6.87133 60.1375 6.57066 60.3281 6.20399C60.5335 5.82266 60.6361 5.40466 60.6361 4.94999C60.6361 4.49533 60.5335 4.08466 60.3281 3.71799C60.1375 3.35133 59.8808 3.05799 59.5581 2.83799C59.2355 2.61799 58.8761 2.50799 58.4801 2.50799H54.6301V7.43599ZM66.1975 15.62V0.219994H72.7535C73.6335 0.219994 74.4402 0.439994 75.1735 0.879995C75.9215 1.30533 76.5155 1.89199 76.9555 2.63999C77.3955 3.37333 77.6155 4.20199 77.6155 5.12599C77.6155 5.96199 77.3955 6.73933 76.9555 7.45799C76.5155 8.17666 75.9288 8.75599 75.1955 9.19599C74.4622 9.62133 73.6482 9.83399 72.7535 9.83399H68.5735V15.62H66.1975ZM75.3495 15.62L71.4335 8.66799L73.8755 8.11799L78.2315 15.642L75.3495 15.62ZM68.5735 7.54599H72.9735C73.3988 7.54599 73.7802 7.44333 74.1175 7.23799C74.4548 7.01799 74.7188 6.72466 74.9095 6.35799C75.1002 5.97666 75.1955 5.55866 75.1955 5.10399C75.1955 4.59066 75.0708 4.14333 74.8215 3.76199C74.5868 3.36599 74.2495 3.05799 73.8095 2.83799C73.3842 2.61799 72.9002 2.50799 72.3575 2.50799H68.5735V7.54599ZM79.8884 15.62L85.8504 0.219994H88.2704L94.1884 15.62H91.6584L88.1384 6.33599C88.0944 6.23333 88.0064 5.98399 87.8744 5.58799C87.757 5.19199 87.6177 4.75199 87.4564 4.26799C87.295 3.78399 87.1484 3.34399 87.0164 2.94799C86.8844 2.53733 86.7964 2.27333 86.7524 2.15599L87.2584 2.13399C87.1704 2.38333 87.0604 2.69866 86.9284 3.07999C86.811 3.46133 86.679 3.86466 86.5324 4.28999C86.4004 4.71533 86.2684 5.11866 86.1364 5.49999C86.0044 5.86666 85.8944 6.17466 85.8064 6.42399L82.3084 15.62H79.8884ZM82.5284 11.792L83.4084 9.50399H90.4044L91.4164 11.792H82.5284ZM105.991 15.62V2.50799H101.679V0.219994H112.811V2.50799H108.367V15.62H105.991ZM121.724 15.752C120.536 15.752 119.473 15.4953 118.534 14.982C117.596 14.454 116.855 13.7353 116.312 12.826C115.784 11.902 115.52 10.8607 115.52 9.70199V0.197994H117.896V9.50399C117.896 10.252 118.072 10.9267 118.424 11.528C118.776 12.1147 119.238 12.584 119.81 12.936C120.397 13.288 121.035 13.464 121.724 13.464C122.458 13.464 123.118 13.288 123.704 12.936C124.306 12.584 124.782 12.1147 125.134 11.528C125.486 10.9267 125.662 10.252 125.662 9.50399V0.197994H127.928V9.70199C127.928 10.8607 127.657 11.902 127.114 12.826C126.586 13.7353 125.853 14.454 124.914 14.982C123.976 15.4953 122.912 15.752 121.724 15.752ZM138.192 15.62V0.219994H147.894V2.50799H140.568V13.332H147.894V15.62H138.192ZM139.27 8.86599V6.57799H146.684V8.86599H139.27ZM151.705 15.62V0.219994H153.839L163.255 12.826L162.903 13.024C162.845 12.6573 162.793 12.2613 162.749 11.836C162.705 11.396 162.661 10.934 162.617 10.45C162.588 9.95133 162.559 9.43066 162.529 8.88799C162.515 8.33066 162.5 7.75133 162.485 7.14999C162.471 6.54866 162.463 5.92533 162.463 5.27999V0.219994H164.839V15.62H162.661L153.399 3.47599L153.641 3.16799C153.715 4.06266 153.773 4.82533 153.817 5.45599C153.876 6.07199 153.92 6.59999 153.949 7.03999C153.993 7.46533 154.023 7.81733 154.037 8.09599C154.052 8.36 154.059 8.58 154.059 8.75599C154.074 8.93199 154.081 9.08599 154.081 9.21799V15.62H151.705ZM172.077 15.62V2.50799H167.765V0.219994H178.897V2.50799H174.453V15.62H172.077ZM181.826 15.62V0.219994H188.382C189.262 0.219994 190.069 0.439994 190.802 0.879995C191.55 1.30533 192.144 1.89199 192.584 2.63999C193.024 3.37333 193.244 4.20199 193.244 5.12599C193.244 5.96199 193.024 6.73933 192.584 7.45799C192.144 8.17666 191.558 8.75599 190.824 9.19599C190.091 9.62133 189.277 9.83399 188.382 9.83399H184.202V15.62H181.826ZM190.978 15.62L187.062 8.66799L189.504 8.11799L193.86 15.642L190.978 15.62ZM184.202 7.54599H188.602C189.028 7.54599 189.409 7.44333 189.746 7.23799C190.084 7.01799 190.348 6.72466 190.538 6.35799C190.729 5.97666 190.824 5.55866 190.824 5.10399C190.824 4.59066 190.7 4.14333 190.45 3.76199C190.216 3.36599 189.878 3.05799 189.438 2.83799C189.013 2.61799 188.529 2.50799 187.986 2.50799H184.202V7.54599ZM195.517 15.62L201.479 0.219994H203.899L209.817 15.62H207.287L203.767 6.33599C203.723 6.23333 203.635 5.98399 203.503 5.58799C203.386 5.19199 203.247 4.75199 203.085 4.26799C202.924 3.78399 202.777 3.34399 202.645 2.94799C202.513 2.53733 202.425 2.27333 202.381 2.15599L202.887 2.13399C202.799 2.38333 202.689 2.69866 202.557 3.07999C202.44 3.46133 202.308 3.86466 202.161 4.28999C202.029 4.71533 201.897 5.11866 201.765 5.49999C201.633 5.86666 201.523 6.17466 201.435 6.42399L197.937 15.62H195.517ZM198.157 11.792L199.037 9.50399H206.033L207.045 11.792H198.157ZM212.528 15.62V0.219994H218.556C219.656 0.219994 220.646 0.403328 221.526 0.769995C222.42 1.13666 223.183 1.66466 223.814 2.35399C224.444 3.04333 224.928 3.85733 225.266 4.79599C225.603 5.73466 225.772 6.77599 225.772 7.91999C225.772 9.06399 225.603 10.1127 225.266 11.066C224.928 12.0047 224.444 12.8187 223.814 13.508C223.198 14.1827 222.442 14.7033 221.548 15.07C220.653 15.4367 219.656 15.62 218.556 15.62H212.528ZM214.904 13.574L214.838 13.332H218.446C219.223 13.332 219.912 13.2073 220.514 12.958C221.13 12.7087 221.643 12.3567 222.054 11.902C222.479 11.4327 222.802 10.8607 223.022 10.186C223.242 9.51133 223.352 8.75599 223.352 7.91999C223.352 7.08399 223.242 6.33599 223.022 5.67599C222.802 5.00133 222.479 4.42933 222.054 3.95999C221.628 3.49066 221.115 3.13133 220.514 2.88199C219.912 2.63266 219.223 2.50799 218.446 2.50799H214.772L214.904 2.30999V13.574ZM226.949 15.62L232.911 0.219994H235.331L241.249 15.62H238.719L235.199 6.33599C235.155 6.23333 235.067 5.98399 234.935 5.58799C234.818 5.19199 234.678 4.75199 234.517 4.26799C234.356 3.78399 234.209 3.34399 234.077 2.94799C233.945 2.53733 233.857 2.27333 233.813 2.15599L234.319 2.13399C234.231 2.38333 234.121 2.69866 233.989 3.07999C233.872 3.46133 233.74 3.86466 233.593 4.28999C233.461 4.71533 233.329 5.11866 233.197 5.49999C233.065 5.86666 232.955 6.17466 232.867 6.42399L229.369 15.62H226.949ZM229.589 11.792L230.469 9.50399H237.465L238.477 11.792H229.589Z" fill="#010101"/>
</svg>
