<svg preserveAspectRatio="none" width="100%" height="100%" overflow="visible" style="display: block;" viewBox="0 0 24 24" fill="none" xmlns="http://www.w3.org/2000/svg">
<g id="Group">
<path id="Vector" d="M24 2.40155H22.7953V21.5984H24V2.40155Z" fill="var(--fill-0, #010101)"/>
<path id="Vector_2" d="M22.7953 21.5984H21.5984V22.7953H22.7953V21.5984Z" fill="var(--fill-0, #010101)"/>
<path id="Vector_3" d="M22.7953 1.19687H21.5984V2.40159H22.7953V1.19687Z" fill="var(--fill-0, #010101)"/>
<path id="Vector_4" d="M21.5984 22.7953H2.40158V24H21.5984V22.7953Z" fill="var(--fill-0, #010101)"/>
<path id="Vector_5" d="M19.1968 15.5984H4.80314V16.7953H3.59841V19.1968H4.80314V18H19.1968V19.1968H20.4016V16.7953H19.1968V15.5984Z" fill="var(--fill-0, #010101)"/>
<path id="Vector_6" d="M19.1968 9.59844H4.80314V10.7953H3.59841V13.1969H4.80314V12H19.1968V13.1969H20.4016V10.7953H19.1968V9.59844Z" fill="var(--fill-0, #010101)"/>
<path id="Vector_7" d="M19.1968 3.59841H4.80314V4.79527H3.59841V7.19684H4.80314V5.99999H19.1968V7.19684H20.4016V4.79527H19.1968V3.59841Z" fill="var(--fill-0, #010101)"/>
<path id="Vector_8" d="M19.1969 19.1968H4.80316V20.3937H19.1969V19.1968Z" fill="var(--fill-0, #010101)"/>
<path id="Vector_9" d="M19.1969 13.1969H4.80316V14.3937H19.1969V13.1969Z" fill="var(--fill-0, #010101)"/>
<path id="Vector_10" d="M19.1969 7.19683H4.80316V8.40155H19.1969V7.19683Z" fill="var(--fill-0, #010101)"/>
<path id="Vector_11" d="M21.5984 0H2.40158V1.19685H21.5984V0Z" fill="var(--fill-0, #010101)"/>
<path id="Vector_12" d="M2.40157 21.5984H1.20472V22.7953H2.40157V21.5984Z" fill="var(--fill-0, #010101)"/>
<path id="Vector_13" d="M2.40157 1.19687H1.20472V2.40159H2.40157V1.19687Z" fill="var(--fill-0, #010101)"/>
<path id="Vector_14" d="M1.20472 2.40155H0V21.5984H1.20472V2.40155Z" fill="var(--fill-0, #010101)"/>
</g>
</svg>
