<svg width="24" height="24" viewBox="0 0 24 24" fill="none" xmlns="http://www.w3.org/2000/svg">
<path d="M24.0005 2.39447H22.8032V21.6055H24.0005V2.39447Z" fill="#000001"/>
<path d="M22.8028 21.6055H21.5977V22.8028H22.8028V21.6055Z" fill="#000001"/>
<path d="M22.8028 1.19724H21.5977V2.39448H22.8028V1.19724Z" fill="#000001"/>
<path d="M1.19724 22.8028H2.39449V24H21.5976V22.8028H14.3984V20.4004H13.2012V19.2031H15.6035V17.998H13.2012V16.8047H12V13.2051H8.40039V10.8028H9.60551V9.60551H10.8028V7.19527H12V4.79685H13.2051V1.19724H21.6016V0H2.39449V1.19724H1.19724V2.39449H0V21.6095H1.19724V22.8028ZM4.79685 6.00197H6.00197V8.39645H4.79685V6.00197ZM4.79685 15.6035H6.00197V16.8047H7.19527V18.002H12V19.2071H7.19527V18.002H6.00197V16.8047H4.79685V15.6035Z" fill="#000001"/>
<path d="M19.2037 6.00201H17.9985V8.3965H19.2037V6.00201Z" fill="#000001"/>
<path d="M17.9975 15.6035H16.8003V16.8008H17.9975V15.6035Z" fill="#000001"/>
<path d="M16.8008 16.8008H15.6035V17.998H16.8008V16.8008Z" fill="#000001"/>
</svg>
