<svg width="24" height="24" viewBox="0 0 24 24" fill="none" xmlns="http://www.w3.org/2000/svg">
<g clip-path="url(#clip0_414_26442)">
<path d="M1.71373 8.0025H22.2862V22.86H23.4262V4.575H22.2862V6.855H1.71373V4.575H0.57373V22.86H1.71373V8.0025Z" fill="#010101"/>
<path d="M22.2862 3.4275H21.1462V4.575H22.2862V3.4275Z" fill="#010101"/>
<path d="M22.2862 22.86H1.71375V24H22.2862V22.86Z" fill="#010101"/>
<path d="M18.8588 13.7175H16.5713V14.8575H15.4313V13.7175H13.1438V14.8575H12.0038V17.145H13.1438V18.285H14.2838V19.425H15.4313V20.5725H16.5713V19.425H17.7113V18.285H18.8588V17.145H19.9988V14.8575H18.8588V13.7175Z" fill="#010101"/>
<path d="M18.8587 10.2825H17.7112V11.43H18.8587V10.2825Z" fill="#010101"/>
<path d="M14.2837 10.2825H13.1437V11.43H14.2837V10.2825Z" fill="#010101"/>
<path d="M9.71623 19.425H8.56873V20.5725H9.71623V19.425Z" fill="#010101"/>
<path d="M9.71623 14.8575H8.56873V15.9975H9.71623V14.8575Z" fill="#010101"/>
<path d="M9.71623 10.2825H8.56873V11.43H9.71623V10.2825Z" fill="#010101"/>
<path d="M5.14122 19.425H4.00122V20.5725H5.14122V19.425Z" fill="#010101"/>
<path d="M5.14122 14.8575H4.00122V15.9975H5.14122V14.8575Z" fill="#010101"/>
<path d="M5.14122 10.2825H4.00122V11.43H5.14122V10.2825Z" fill="#010101"/>
<path d="M6.28871 3.4275V4.575H7.42871V3.4275H16.5712V4.575H17.7112V3.4275H21.1462V2.2875H17.7112V0H16.5712V2.2875H7.42871V0H6.28871V2.2875H2.86121V3.4275H6.28871Z" fill="#010101"/>
<path d="M2.86125 3.4275H1.71375V4.575H2.86125V3.4275Z" fill="#010101"/>
</g>
<defs>
<clipPath id="clip0_414_26442">
<rect width="24" height="24" fill="white"/>
</clipPath>
</defs>
</svg>
