<svg width="48" height="48" viewBox="0 0 48 48" fill="none" xmlns="http://www.w3.org/2000/svg">
<rect width="48" height="48" rx="24" fill="#61D472"/>
<path d="M13.1132 30.927L13.675 29.5362L15.0658 30.098L15.6276 28.7072L17.0184 29.269L17.5803 27.8782L18.9711 28.4401L19.5329 27.0493L20.9237 27.6111L21.4855 26.2203L22.8764 26.7821L23.4382 25.3913L24.829 25.9531L25.3908 24.5623L26.7816 25.1242L27.3435 23.7334L28.7343 24.2952L29.2961 22.9044L30.6869 23.4662L31.2487 22.0754L32.6395 22.6372L29.2686 30.9821L32.0502 32.1057L37.6685 18.1977L23.7604 12.5794L22.6367 15.361L30.9816 18.732L30.4198 20.1228L29.029 19.5609L28.4671 20.9517L27.0763 20.3899L26.5145 21.7807L25.1237 21.2189L24.5618 22.6097L23.171 22.0479L22.6092 23.4387L21.2184 22.8768L20.6566 24.2676L19.2658 23.7058L18.7039 25.0966L17.3131 24.5348L16.7513 25.9256L15.3605 25.3638L14.7987 26.7546L13.4078 26.1927L12.846 27.5836L11.4552 27.0217L10.3315 29.8033L13.1132 30.927Z" fill="black"/>
</svg>
