<svg width="24" height="24" viewBox="0 0 24 24" fill="none" xmlns="http://www.w3.org/2000/svg">
<g clip-path="url(#clip0_2298_110445)">
<path d="M24 17.715H22.8525V21.1425H24V17.715Z" fill="#010101"/>
<path d="M24 9.7125H22.8525V14.2875H24V9.7125Z" fill="#010101"/>
<path d="M24 2.8575H22.8525V6.285H24V2.8575Z" fill="#010101"/>
<path d="M22.8525 21.1425H21.7125V22.2825H22.8525V21.1425Z" fill="#010101"/>
<path d="M22.8525 1.71H21.7125V2.8575H22.8525V1.71Z" fill="#010101"/>
<path d="M21.7125 0.57H18.285V1.71H21.7125V0.57Z" fill="#010101"/>
<path d="M21.7125 22.2825H18.285V23.43H21.7125V22.2825Z" fill="#010101"/>
<path d="M17.1376 15.4275H15.9976V16.5675H17.1376V15.4275Z" fill="#010101"/>
<path d="M17.1376 6.285H15.9976V8.5725H17.1376V6.285Z" fill="#010101"/>
<path d="M15.9975 16.5675H14.8575V17.715H15.9975V16.5675Z" fill="#010101"/>
<path d="M14.8575 12H13.71V13.14H14.8575V12Z" fill="#010101"/>
<path d="M14.8575 22.2825H9.14246V23.43H14.8575V22.2825Z" fill="#010101"/>
<path d="M14.8575 17.715H9.14246V18.855H14.8575V17.715Z" fill="#010101"/>
<path d="M13.7099 10.8525H12.5699V12H13.7099V10.8525Z" fill="#010101"/>
<path d="M13.7101 13.14H11.4301V14.2875H13.7101V13.14Z" fill="#010101"/>
<path d="M12.5701 7.425H11.4301V10.8525H12.5701V7.425Z" fill="#010101"/>
<path d="M14.8575 0.57H9.14246V1.71H14.8575V0.57Z" fill="#010101"/>
<path d="M9.14249 16.5675H7.995V17.715H9.14249V16.5675Z" fill="#010101"/>
<path d="M7.99498 15.4275H6.85498V16.5675H7.99498V15.4275Z" fill="#010101"/>
<path d="M7.99498 6.285H6.85498V8.5725H7.99498V6.285Z" fill="#010101"/>
<path d="M5.71498 22.2825H2.28748V23.43H5.71498V22.2825Z" fill="#010101"/>
<path d="M5.71498 0.57H2.28748V1.71H5.71498V0.57Z" fill="#010101"/>
<path d="M2.28751 21.1425H1.14001V22.2825H2.28751V21.1425Z" fill="#010101"/>
<path d="M2.28751 1.71H1.14001V2.8575H2.28751V1.71Z" fill="#010101"/>
<path d="M1.14 17.715H0V21.1425H1.14V17.715Z" fill="#010101"/>
<path d="M1.14 9.7125H0V14.2875H1.14V9.7125Z" fill="#010101"/>
<path d="M1.14 2.8575H0V6.285H1.14V2.8575Z" fill="#010101"/>
</g>
<defs>
<clipPath id="clip0_2298_110445">
<rect width="24" height="24" fill="white"/>
</clipPath>
</defs>
</svg>
