<svg width="24" height="24" viewBox="0 0 24 24" fill="none" xmlns="http://www.w3.org/2000/svg">
<path d="M21.1388 9.14245V10.29H23.4263V4.57495H22.2863V9.14245H21.1388Z" fill="#010101"/>
<path d="M22.2863 14.8575V19.4325H23.4263V13.7175H21.1388V14.8575H22.2863Z" fill="#010101"/>
<path d="M22.2863 19.4324H1.71378V20.5724H22.2863V19.4324Z" fill="#010101"/>
<path d="M21.1387 10.29H19.9987V13.7175H21.1387V10.29Z" fill="#010101"/>
<path d="M16.5713 12.5701H14.2838V13.7176H13.1438V16.0051H14.2838V17.1451H16.5713V16.0051H17.7113V13.7176H16.5713V12.5701Z" fill="#010101"/>
<path d="M15.4313 8.00255H14.2838V9.14255H13.1438V10.29H11.9963V11.43H10.8563V12.57H9.71626V13.7176H8.56876V14.8575H7.42876V16.005H6.28876V17.1451H8.56876V16.005H9.71626V14.8575H10.8563V13.7176H11.9963V12.57H13.1438V11.43H14.2838V10.29H15.4313V9.14255H16.5713V8.00255H17.7113V6.86255H15.4313V8.00255Z" fill="#010101"/>
<path d="M7.42876 11.43H9.71626V10.29H10.8563V8.00255H9.71626V6.86255H7.42876V8.00255H6.28876V10.29H7.42876V11.43Z" fill="#010101"/>
<path d="M4.00126 10.29H2.85376V13.7175H4.00126V10.29Z" fill="#010101"/>
<path d="M22.2863 3.42749H1.71378V4.57499H22.2863V3.42749Z" fill="#010101"/>
<path d="M1.71376 9.14245V4.57495H0.573761V10.29H2.85376V9.14245H1.71376Z" fill="#010101"/>
<path d="M1.71376 14.8575H2.85376V13.7175H0.573761V19.4325H1.71376V14.8575Z" fill="#010101"/>
</svg>
