<svg preserveAspectRatio="none" width="100%" height="100%" overflow="visible" style="display: block;" viewBox="0 0 19.425 24" fill="none" xmlns="http://www.w3.org/2000/svg">
<g id="Group">
<path id="Vector" d="M19.425 4.57503H18.285V13.7175H19.425V4.57503Z" fill="var(--fill-0, #010101)"/>
<path id="Vector_2" d="M18.285 13.7175H17.1375V14.8575H18.285V13.7175Z" fill="var(--fill-0, #010101)"/>
<path id="Vector_3" d="M18.285 3.42749H17.1375V4.57499H18.285V3.42749Z" fill="var(--fill-0, #010101)"/>
<path id="Vector_4" d="M17.1374 14.8575H15.9974V15.9975H17.1374V14.8575Z" fill="var(--fill-0, #010101)"/>
<path id="Vector_5" d="M17.1374 2.28752H15.9974V3.42752H17.1374V2.28752Z" fill="var(--fill-0, #010101)"/>
<path id="Vector_6" d="M15.9974 15.9975H14.8499V17.145H15.9974V15.9975Z" fill="var(--fill-0, #010101)"/>
<path id="Vector_7" d="M15.9974 1.13997H14.8499V2.28747H15.9974V1.13997Z" fill="var(--fill-0, #010101)"/>
<path id="Vector_8" d="M11.4225 17.145V12.57H10.2825V17.145H9.14247V12.57H7.99497V17.145H4.56748V18.285H5.70748V22.86H6.85498V21.7125H12.57V22.86H13.71V18.285H14.85V17.145H11.4225ZM12.57 19.425H6.85498V18.285H12.57V19.425Z" fill="var(--fill-0, #010101)"/>
<path id="Vector_9" d="M13.71 8.00252H12.57V10.2825H13.71V8.00252Z" fill="var(--fill-0, #010101)"/>
<path id="Vector_10" d="M12.57 10.2825H11.4225V12.57H12.57V10.2825Z" fill="var(--fill-0, #010101)"/>
<path id="Vector_11" d="M12.57 22.86H6.85497V24H12.57V22.86Z" fill="var(--fill-0, #010101)"/>
<path id="Vector_12" d="M7.99497 10.2825H6.85497V12.57H7.99497V10.2825Z" fill="var(--fill-0, #010101)"/>
<path id="Vector_13" d="M6.85495 8.00252H5.70745V10.2825H6.85495V8.00252Z" fill="var(--fill-0, #010101)"/>
<path id="Vector_14" d="M14.85 0H4.56748V1.14H14.85V0Z" fill="var(--fill-0, #010101)"/>
<path id="Vector_15" d="M4.56746 15.9975H3.42747V17.145H4.56746V15.9975Z" fill="var(--fill-0, #010101)"/>
<path id="Vector_16" d="M4.56746 1.13997H3.42747V2.28747H4.56746V1.13997Z" fill="var(--fill-0, #010101)"/>
<path id="Vector_17" d="M3.42748 14.8575H2.27999V15.9975H3.42748V14.8575Z" fill="var(--fill-0, #010101)"/>
<path id="Vector_18" d="M3.42748 2.28752H2.27999V3.42752H3.42748V2.28752Z" fill="var(--fill-0, #010101)"/>
<path id="Vector_19" d="M2.27997 13.7175H1.13997V14.8575H2.27997V13.7175Z" fill="var(--fill-0, #010101)"/>
<path id="Vector_20" d="M2.27997 3.42749H1.13997V4.57499H2.27997V3.42749Z" fill="var(--fill-0, #010101)"/>
<path id="Vector_21" d="M1.14 4.57503H0V13.7175H1.14V4.57503Z" fill="var(--fill-0, #010101)"/>
<g id="Exclude">
</g>
<g id="Rectangle 208">
</g>
<g id="Rectangle 209">
</g>
</g>
</svg>
