<svg width="24" height="24" viewBox="0 0 24 24" fill="none" xmlns="http://www.w3.org/2000/svg">
<g clip-path="url(#clip0_414_26367)">
<path d="M22.8562 5.715H21.7087V9.1425H22.8562V5.715Z" fill="#010101"/>
<path d="M21.7088 9.1425H20.5688V10.2825H21.7088V9.1425Z" fill="#010101"/>
<path d="M21.7087 4.575H18.2812V5.715H21.7087V4.575Z" fill="#010101"/>
<path d="M17.1413 10.2825V11.43H18.2813V18.285H17.1413V22.86H15.9938V12.57H17.1413V11.43H12.5663V12.57H13.7138V22.86H11.4263V11.43H10.2863V10.2825H7.99883V11.43H9.13883V22.86H7.99883V18.285H6.85133V12.57H7.99883V11.43H5.71133V9.1425H3.42383V10.2825H4.57133V18.285H5.71133V22.86H6.85133V24H18.2813V22.86H19.4288V18.285H20.5688V10.2825H17.1413Z" fill="#010101"/>
<path d="M19.4288 8.0025H18.2812V9.1425H19.4288V8.0025Z" fill="#010101"/>
<path d="M18.2814 5.715H17.1414V6.855H18.2814V5.715Z" fill="#010101"/>
<path d="M17.1414 3.4275H15.9939V5.715H17.1414V3.4275Z" fill="#010101"/>
<path d="M15.9938 6.855H14.8538V8.0025H15.9938V6.855Z" fill="#010101"/>
<path d="M15.9938 2.2875H14.8538V3.4275H15.9938V2.2875Z" fill="#010101"/>
<path d="M14.8539 1.14H12.5664V2.2875H14.8539V1.14Z" fill="#010101"/>
<path d="M14.8539 8.0025H12.5664V9.1425H14.8539V8.0025Z" fill="#010101"/>
<path d="M12.5663 10.2825H11.4263V11.43H12.5663V10.2825Z" fill="#010101"/>
<path d="M12.5663 6.855H11.4263V8.0025H12.5663V6.855Z" fill="#010101"/>
<path d="M12.5663 2.2875H11.4263V3.4275H12.5663V2.2875Z" fill="#010101"/>
<path d="M11.4264 1.14H10.2864V2.2875H11.4264V1.14Z" fill="#010101"/>
<path d="M9.13878 4.575H7.99878V5.715H9.13878V4.575Z" fill="#010101"/>
<path d="M10.2863 0H6.85132V1.14H10.2863V0Z" fill="#010101"/>
<path d="M7.99882 8.0025H6.85132V9.1425H7.99882V8.0025Z" fill="#010101"/>
<path d="M7.99868 3.4275H5.71118V4.575H7.99868V3.4275Z" fill="#010101"/>
<path d="M6.85129 1.14H4.57129V2.2875H6.85129V1.14Z" fill="#010101"/>
<path d="M5.71129 4.575H4.57129V5.715H5.71129V4.575Z" fill="#010101"/>
<path d="M4.57119 2.2875H2.28369V3.4275H4.57119V2.2875Z" fill="#010101"/>
<path d="M3.42369 6.855H2.28369V9.1425H3.42369V6.855Z" fill="#010101"/>
<path d="M2.2838 3.4275H1.1438V6.855H2.2838V3.4275Z" fill="#010101"/>
</g>
<defs>
<clipPath id="clip0_414_26367">
<rect width="24" height="24" fill="white"/>
</clipPath>
</defs>
</svg>
