<svg width="60" height="52" viewBox="0 0 60 52" fill="none" xmlns="http://www.w3.org/2000/svg">
<path d="M60.0001 22.856H57.1501V39.9935H60.0001V22.856Z" fill="#010101"/>
<path d="M57.1487 39.9937H54.28V42.8624H57.1487V39.9937Z" fill="#010101"/>
<path d="M57.1487 19.9878H54.28V22.8566H57.1487V19.9878Z" fill="#010101"/>
<path d="M54.2789 42.8638H51.429V48.5638H54.2789V42.8638Z" fill="#010101"/>
<path d="M54.2789 14.2886H51.429V19.9886H54.2789V14.2886Z" fill="#010101"/>
<path d="M42.8622 48.5623V14.2871H51.4308V11.4184H28.5732V8.56836H25.7232V11.4184H17.1378V8.56836H14.2878V11.4184H2.86743V14.2871H39.9936V48.5623H2.86743V51.4311H51.4308V48.5623H42.8622Z" fill="#010101"/>
<path d="M48.5801 39.9937H45.7114V42.8624H48.5801V39.9937Z" fill="#010101"/>
<path d="M48.5801 34.2764H45.7114V37.1451H48.5801V34.2764Z" fill="#010101"/>
<path d="M48.5801 25.707H45.7114V28.5758H48.5801V25.707Z" fill="#010101"/>
<path d="M48.5801 19.9878H45.7114V22.8566H48.5801V19.9878Z" fill="#010101"/>
<path d="M31.4237 0H28.5737V2.85001H31.4237V0Z" fill="#010101"/>
<path d="M28.5719 2.84912H25.7219V5.71789H28.5719V2.84912Z" fill="#010101"/>
<path d="M25.7233 5.71924H17.136V8.56925H25.7233V5.71924Z" fill="#010101"/>
<path d="M17.1378 2.84912H14.2878V5.71789H17.1378V2.84912Z" fill="#010101"/>
<path d="M14.2857 0H11.4358V2.85001H14.2857V0Z" fill="#010101"/>
<path d="M34.291 17.1387H8.56275V19.9887H5.71655V42.8638H8.56275V45.7138H34.2872V42.8638H37.1372V19.9887H34.2872L34.291 17.1387ZM22.8556 25.7168H25.7224V28.5856H22.8556V25.7168ZM14.287 25.7168H17.1369V28.5856H14.287V25.7168ZM28.5723 34.2856H25.7224V37.1544H14.2851V34.2856H11.4371V31.4356H14.287V34.2856H25.7243V31.4356H28.5742L28.5723 34.2856ZM34.291 28.5856H31.4223V22.8668H25.7224V19.9981H31.4223V22.8668H34.291V28.5856Z" fill="#010101"/>
<path d="M2.86869 14.2886H0V48.5637H2.86869V14.2886Z" fill="#010101"/>
</svg>
