<svg width="24" height="24" viewBox="0 0 24 24" fill="none" xmlns="http://www.w3.org/2000/svg">
<g clip-path="url(#clip0_414_26416)">
<path d="M0.57373 12.57H2.85373V11.43H4.00123V10.2825H5.14123V9.1425H6.28873V8.0025H7.42873V6.855H8.56873V5.715H9.71623V4.5675H10.8562V3.4275H13.1437V4.5675H14.2837V5.715H15.4312V6.855H16.5712V8.0025H17.7112V9.1425H18.8587V10.2825H19.9987V11.43H21.1387V12.57H23.4262V10.2825H22.2862V9.1425H21.1387V8.0025H19.9987V6.855H18.8587V5.715H17.7112V4.5675H16.5712V3.4275H15.4312V2.2875H14.2837V1.14H13.1437V0H10.8562V1.14H9.71623V2.2875H8.56873V3.4275H7.42873V4.5675H6.28873V5.715H5.14123V6.855H4.00123V8.0025H2.85373V9.1425H1.71373V10.2825H0.57373V12.57Z" fill="#010101"/>
<path d="M19.9987 22.86H15.4312V17.145H14.2837V24H21.1387V13.71H19.9987V22.86Z" fill="#010101"/>
<path d="M19.9988 12.57H18.8588V13.71H19.9988V12.57Z" fill="#010101"/>
<path d="M18.8587 11.43H17.7112V12.57H18.8587V11.43Z" fill="#010101"/>
<path d="M17.7113 10.2825H16.5713V11.43H17.7113V10.2825Z" fill="#010101"/>
<path d="M16.5713 9.1425H15.4313V10.2825H16.5713V9.1425Z" fill="#010101"/>
<path d="M15.4312 8.0025H14.2837V9.1425H15.4312V8.0025Z" fill="#010101"/>
<path d="M14.2837 15.9975H13.1437V17.145H14.2837V15.9975Z" fill="#010101"/>
<path d="M14.2837 6.855H13.1437V8.0025H14.2837V6.855Z" fill="#010101"/>
<path d="M13.1437 14.8575H10.8562V15.9975H13.1437V14.8575Z" fill="#010101"/>
<path d="M13.1437 5.715H10.8562V6.855H13.1437V5.715Z" fill="#010101"/>
<path d="M10.8562 15.9975H9.71619V17.145H10.8562V15.9975Z" fill="#010101"/>
<path d="M10.8562 6.855H9.71619V8.0025H10.8562V6.855Z" fill="#010101"/>
<path d="M9.71626 17.145H8.56876V22.86H4.00126V13.71H2.85376V24H9.71626V17.145Z" fill="#010101"/>
<path d="M9.71623 8.0025H8.56873V9.1425H9.71623V8.0025Z" fill="#010101"/>
<path d="M8.56871 9.1425H7.42871V10.2825H8.56871V9.1425Z" fill="#010101"/>
<path d="M7.4287 10.2825H6.2887V11.43H7.4287V10.2825Z" fill="#010101"/>
<path d="M6.28874 11.43H5.14124V12.57H6.28874V11.43Z" fill="#010101"/>
<path d="M5.14122 12.57H4.00122V13.71H5.14122V12.57Z" fill="#010101"/>
</g>
<defs>
<clipPath id="clip0_414_26416">
<rect width="24" height="24" fill="white"/>
</clipPath>
</defs>
</svg>
