<svg preserveAspectRatio="none" width="100%" height="100%" overflow="visible" style="display: block;" viewBox="0 0 24 18.006" fill="none" xmlns="http://www.w3.org/2000/svg">
<g id="Group">
<path id="Vector" d="M21.5977 6.002V7.20713H24V1.20512H22.8028V6.002H21.5977Z" fill="var(--fill-0, #010101)"/>
<path id="Vector_2" d="M22.8028 12.004V16.8088H24V10.8068H21.5977V12.004H22.8028Z" fill="var(--fill-0, #010101)"/>
<path id="Vector_3" d="M22.8027 16.8087H1.19724V18.0059H22.8027V16.8087Z" fill="var(--fill-0, #010101)"/>
<path id="Vector_4" d="M21.5977 7.20718H20.4004V10.8068H21.5977V7.20718Z" fill="var(--fill-0, #010101)"/>
<path id="Vector_5" d="M16.8008 9.60176H14.3984V10.8069H13.2012V13.2093H14.3984V14.4065H16.8008V13.2093H17.998V10.8069H16.8008V9.60176Z" fill="var(--fill-0, #010101)"/>
<path id="Vector_6" d="M15.6035 4.80482H14.3984V6.00207H13.2011V7.2072H11.996V8.40446H10.7988V9.60171H9.60153V10.8068H8.39641V12.0041H7.19917V13.2092H6.00192V14.4065H8.39641V13.2092H9.60153V12.0041H10.7988V10.8068H11.996V9.60171H13.2011V8.40446H14.3984V7.2072H15.6035V6.00207H16.8007V4.80482H17.998V3.60757H15.6035V4.80482Z" fill="var(--fill-0, #010101)"/>
<path id="Vector_7" d="M7.19917 8.40446H9.60153V7.2072H10.7988V4.80482H9.60153V3.60757H7.19917V4.80482H6.00192V7.2072H7.19917V8.40446Z" fill="var(--fill-0, #010101)"/>
<path id="Vector_8" d="M3.59959 7.20718H2.39447V10.8068H3.59959V7.20718Z" fill="var(--fill-0, #010101)"/>
<path id="Vector_9" d="M22.8027 0H1.19724V1.20513H22.8027V0Z" fill="var(--fill-0, #010101)"/>
<path id="Vector_10" d="M1.19724 6.002V1.20512H0V7.20713H2.39449V6.002H1.19724Z" fill="var(--fill-0, #010101)"/>
<path id="Vector_11" d="M1.19724 12.004H2.39449V10.8068H0V16.8088H1.19724V12.004Z" fill="var(--fill-0, #010101)"/>
</g>
</svg>
